# xmcd
#
# Track frame offsets:
#	150
#	31690
#	55562
#	81575
#	102007
#	132085
#	155382
#	182592
#	195777
#	221937
#
# Disc length: 3219 seconds
#
# Revision: 1
# Processed by: cddbd v1.5.2PL0 Copyright (c) Steve Scherf et al.
# Submitted via: EZCDAudioConverter 8.0.2.1
#
DISCID=770c910a
DTITLE=Various Artist - st. Phạm Duy
DYEAR=1999
DGENRE=Contemporary Pop
TTITLE0=Elvis Phương - Thà như giọt mưa
TTITLE1=Thanh Lan - Trả lại em yêu
TTITLE2=Khánh Hà - Bao giờ biết tương tư
TTITLE3=Kiều Nga - Tuổi biết buồn
TTITLE4=Vũ Khanh - Hai năm tình lận đận
TTITLE5=Thanh Lan - Nha Trang ngày về
TTITLE6=Duy Quang - Chuyện tình
TTITLE7=Kiều Nga - Ôi giàn thiên lý đã qua
TTITLE8=Khánh Hà - Cỏ hồng
TTITLE9=Julie - Bài thơ vu quy
EXTD=
EXTT0=
EXTT1=
EXTT2=
EXTT3=
EXTT4=
EXTT5=
EXTT6=
EXTT7=
EXTT8=
EXTT9=
PLAYORDER=
